.
..............................Site Info...........................

 -   http://www.scenetime.com  *_*   

SceneTime is going to Close sign up on march/1, hurry up! get in before the doors are closed.

     We care to share . Join us on  http://www.scenetime.com 

    Be the first to get new release at  http://www.scenetime.com

        Seed back for speed


...................................NFO:.................................................








































          
          
              
              
                    
                    
                    
                    

The.Corpse.Grinders.1971.DVDRiP.AC3-2.0.XviD-SiC

Poster:
[img]http://img140.imageshack.us/img140/9994/corpsegrinders2.jpg[/img]

IMDB Link:
http://www.imdb.com/title/tt0068414/

Description:
When the Lotus Cat Food Company finds itself in financial trouble, the owners decide to find a new, cheap source of meat -- the local graveyard. Only one problem -- soon cats develop a taste for human flesh, and tabbies are tearing out throats all over town.


General
Complete name                    : The.Corpse.Grinders.1971.DVDRiP.AC3-2.0.XviD-SiC.avi
Format                           : AVI
Format/Info                      : Audio Video Interleave
File size                        : 1.36 GiB
Duration                         : 1h 13mn
Overall bit rate                 : 2 667 Kbps

Video
ID                               : 0
Format                           : MPEG-4 Visual
Format profile                   : Simple@L3
Format settings, BVOP            : 2
Format settings, QPel            : No
Format settings, GMC             : No warppoints
Format settings, Matrix          : Default (H.263)
Muxing mode                      : Packed bitstream
Codec ID                         : XVID
Codec ID/Hint                    : XviD
Duration                         : 1h 13mn
Bit rate                         : 2 403 Kbps
Width                            : 720 pixels
Height                           : 400 pixels
Display aspect ratio             : 16:9
Frame rate                       : 23.976 fps
Color space                      : YUV
Chroma subsampling               : 4:2:0
Bit depth                        : 8 bits
Scan type                        : Progressive
Compression mode                 : Lossy
Bits/(Pixel*Frame)               : 0.348
Stream size                      : 1.23 GiB (90%)
Writing library                  : XviD 1.0.3 (UTC 2004-12-20)

Audio
ID                               : 1
Format                           : AC-3
Format/Info                      : Audio Coding 3
Mode extension                   : CM (complete main)
Codec ID                         : 2000
Duration                         : 1h 13mn
Bit rate mode                    : Constant
Bit rate                         : 256 Kbps
Channel(s)                       : 1 channel
Channel positions                : Front: C
Sampling rate                    : 48.0 KHz
Bit depth                        : 16 bits
Compression mode                 : Lossy
Stream size                      : 134 MiB (10%)
Alignment                        : Aligned on interleaves
Interleave, duration             : 64 ms (1.53 video frames)
Interleave, preload duration     : 192 ms
Title                            : VTS_01_1 T80 1_0ch 192Kbps DELAY 0ms_new










Screenshots:
[img]http://img69.imageshack.us/img69/9747/vlcsnap2012021812h05m10.png[/img]
[img]http://img708.imageshack.us/img708/1622/vlcsnap2012021812h05m06.png[/img]
[img]http://img857.imageshack.us/img857/1708/vlcsnap2012021812h05m04.png[/img]
[img]http://img338.imageshack.us/img338/691/vlcsnap2012021812h05m01.png[/img]

Note: 

Source: 

Enjoy!

Respects to T00NG0D, ELEKTRI4KA, PA, YeFsTe, MrRep and everyone in the struggle...RiP MU & BTJ